<svg width="16" height="16" fill="none" viewBox="0 0 16 16" xmlns="http://www.w3.org/2000/svg">
  <path fill="#fff" fill-rule="evenodd" d="M12.57 3.508a1.654 1.654 0 1 0-2.339 2.34 1.654 1.654 0 0 0 2.34-2.34m-1.632.708a.654.654 0 1 1 .925.924.654.654 0 0 1-.925-.924" clip-rule="evenodd"/>
  <path fill="#fff" fill-rule="evenodd" d="M14.406 1.673a1.2 1.2 0 0 0-.443-.264 3 3 0 0 0-.493-.123 8.4 8.4 0 0 0-1.175-.093c-2.06-.044-3.897 1.08-5.09 2.672l-.719.957-.049.098-2.59-1.11a.5.5 0 0 0-.55.106L1.052 6.16a.5.5 0 0 0 0 .707l.47.471a1.85 1.85 0 0 0 2.435.164l.754.301-.396.397a.5.5 0 0 0 0 .707l.055.054-.87.87a.5.5 0 0 0 .706.708l.87-.87L6.41 11l-.87.87a.5.5 0 1 0 .707.707l.87-.87.055.054a.5.5 0 0 0 .707 0l.396-.396.302.755c-.555.726-.5 1.77.163 2.434l.471.47a.5.5 0 0 0 .708 0l2.243-2.243a.5.5 0 0 0 .106-.55l-1.11-2.59.099-.05.957-.718c1.592-1.193 2.716-3.03 2.672-5.09a8.4 8.4 0 0 0-.094-1.175 3 3 0 0 0-.122-.493 1.2 1.2 0 0 0-.264-.443m-2.132.52c.396.008.753.033 1.03.08q.206.035.32.077.058.021.073.031l.032.074a2 2 0 0 1 .077.32c.047.277.072.634.08 1.03.036 1.67-.878 3.224-2.272 4.27l-.885.663L8.644 9.78 6.298 7.434 7.34 5.35l.664-.885c1.046-1.394 2.6-2.308 4.27-2.273m-8.51 2.67 2.225.953L5.397 7l-1.275-.51a.64.64 0 0 0-.685.141.853.853 0 0 1-1.206 0l-.118-.117zm6.498 5.226-1.184.592.51 1.275a.64.64 0 0 1-.14.685.853.853 0 0 0 0 1.207l.117.117 1.65-1.65zM5.69 8.241l-.313.312 2.148 2.149.313-.313z" clip-rule="evenodd"/>
  <path fill="#fff" d="M5.227 11.558a.5.5 0 1 0-.707-.707l-1.02 1.02a.5.5 0 1 0 .707.707z"/>
</svg>
