<svg width="12" height="12" fill="none" viewBox="0 0 12 12" xmlns="http://www.w3.org/2000/svg">
  <path fill="#fff" fill-rule="evenodd" d="M8.666 3.335a2.667 2.667 0 1 1-5.333 0 2.667 2.667 0 0 1 5.333 0m-1 0c0 .943-.76 1.682-1.667 1.682a1.674 1.674 0 0 1-1.666-1.682c0-.944.76-1.682 1.666-1.682s1.667.738 1.667 1.682M6 6.668C3.053 6.668.665 8.061.665 9.779v.57c0 .545.448.986 1 .986h8.667c.552 0 1-.441 1-.985v-.57c0-1.72-2.388-3.112-5.334-3.112M1.665 9.779c0-.37.264-.881 1.072-1.353.786-.458 1.936-.773 3.261-.773s2.476.315 3.262.773c.808.472 1.072.982 1.072 1.353v.57H1.666z" clip-rule="evenodd"/>
</svg>
