<svg width="12" height="12" fill="none" viewBox="0 0 12 12" xmlns="http://www.w3.org/2000/svg">
  <path fill="#fff" fill-rule="evenodd" d="M.834 6.001c0-1.012.82-1.833 1.833-1.833h6.667c1.013 0 1.833.82 1.833 1.833v4c0 1.013-.82 1.834-1.833 1.834H2.667A1.833 1.833 0 0 1 .834 10zm1.833-.833a.833.833 0 0 0-.833.833v4c0 .46.373.834.833.834h6.667c.46 0 .833-.374.833-.834v-4a.833.833 0 0 0-.833-.833z" clip-rule="evenodd"/>
  <path fill="#fff" fill-rule="evenodd" d="M2.834 3.335a3.167 3.167 0 1 1 6.333 0v1.833H2.834zm3.167-2.167c-1.197 0-2.167.97-2.167 2.167v.833h4.333v-.833c0-1.197-.97-2.167-2.166-2.167" clip-rule="evenodd"/>
</svg>
