<svg width="18" height="18" fill="none" viewBox="0 0 18 18" xmlns="http://www.w3.org/2000/svg">
  <path fill="#fff" fill-rule="evenodd" d="m13.017 5.44 2.54.02-.546-.801a7.17 7.17 0 0 0-3.332-2.684 7.15 7.15 0 0 0-7.946 1.878 7.2 7.2 0 0 0-1.468 2.513l-1.247-.85C2.28 2.289 5.416 0 9.058 0a8.6 8.6 0 0 1 3.62.797c.65.301 1.522.995 2.15 1.533a8.2 8.2 0 0 1 1.41 1.608l.35.511V1.8H18v5.077h-4.983zm-8.034 7.12-2.54-.02.546.801a7.17 7.17 0 0 0 3.332 2.684 7.15 7.15 0 0 0 7.946-1.878 7.2 7.2 0 0 0 1.468-2.513l1.247.85C15.72 15.711 12.584 18 8.942 18a8.6 8.6 0 0 1-3.62-.797c-.65-.301-1.523-.995-2.15-1.533a8.2 8.2 0 0 1-1.41-1.608l-.35-.511v2.65H0v-5.077h4.983z" clip-rule="evenodd"/>
  <path fill="#fff" fill-rule="evenodd" d="M8.152 7.433c.005-.26.08-.364.13-.415.066-.066.194-.137.43-.174.492-.078 1.158.035 1.708.179l.675.177.356-1.341-.675-.177c-.58-.152-1.486-.334-2.284-.208-.408.065-.855.22-1.202.568-.36.362-.535.852-.535 1.421v.026l.002.027c.05.659.446 1.097.855 1.385.376.264.841.456 1.217.612l.042.017c.425.176.74.311.958.47.193.14.212.225.212.3 0 .289-.086.404-.153.464-.09.081-.26.16-.548.196-.587.072-1.35-.07-1.911-.22l-.675-.18-.36 1.34.674.18c.593.158 1.576.364 2.445.256.44-.055.927-.198 1.311-.543.407-.365.613-.88.613-1.494 0-.67-.377-1.123-.783-1.418-.369-.268-.837-.462-1.215-.618l-.031-.013c-.424-.175-.752-.314-.989-.48-.201-.142-.254-.246-.267-.337" clip-rule="evenodd"/>
  <path fill="#fff" fill-rule="evenodd" d="M8.994 11.326c.385 0 .698.31.698.693v1.734H8.295v-1.734c0-.383.313-.693.699-.693m.698-7.281v1.733a.696.696 0 0 1-.698.694.696.696 0 0 1-.699-.694V4.045z" clip-rule="evenodd"/>
</svg>
