<svg width="15" height="20" fill="none" viewBox="0 0 15 20" xmlns="http://www.w3.org/2000/svg">
  <path fill="#fff" fill-rule="evenodd" d="M14.75.25V1c0 1.772-.37 3.347-1.22 4.586-.813 1.186-2.022 1.997-3.599 2.39-.003-.783-.125-1.09-.216-1.318q-.034-.083-.059-.16c1.218-.321 2.07-.933 2.637-1.76.523-.763.84-1.76.93-2.988H13a4.75 4.75 0 0 0-4.178 2.487c-.388-.619-.607-.88-1-1.237A6.24 6.24 0 0 1 13 .25zm-12.25 2H.75V3c0 2.115.529 3.954 1.767 5.265C3.63 9.442 5.223 10.1 7.25 10.227v3.82A6 6 0 0 0 2 20h12a6 6 0 0 0-5.25-5.953V8.5A6.25 6.25 0 0 0 2.5 2.25M7.25 8.5v.224C5.55 8.6 4.379 8.05 3.608 7.235c-.765-.81-1.22-1.971-1.331-3.485H2.5A4.75 4.75 0 0 1 7.25 8.5m4.908 9.778q.045.11.085.222H3.757a4.5 4.5 0 0 1 1.061-1.682 4.502 4.502 0 0 1 7.34 1.46" clip-rule="evenodd"/>
</svg>
