<svg width="10" height="12" fill="none" viewBox="0 0 10 12" xmlns="http://www.w3.org/2000/svg">
  <path fill="#fff" fill-rule="evenodd" d="M.396 6c0-.886.718-1.604 1.604-1.604h5.833c.886 0 1.604.718 1.604 1.604v3.5c0 .886-.718 1.604-1.604 1.604H2A1.604 1.604 0 0 1 .396 9.5zM2 5.27a.73.73 0 0 0-.73.73v3.5c0 .403.327.73.73.73h5.833a.73.73 0 0 0 .73-.73V6a.73.73 0 0 0-.73-.73z" clip-rule="evenodd"/>
  <path fill="#fff" fill-rule="evenodd" d="M2.146 3.667a2.77 2.77 0 1 1 5.542 0V5.27H2.146zm2.77-1.896a1.896 1.896 0 0 0-1.895 1.896v.729h3.792v-.73a1.896 1.896 0 0 0-1.896-1.895" clip-rule="evenodd"/>
</svg>
