<svg width="14" height="20" fill="none" viewBox="0 0 14 20" xmlns="http://www.w3.org/2000/svg">
  <path fill="#fff" fill-rule="evenodd" d="M7.445.395 7 .066l-.445.329C4.848 1.653 3.22 3.827 2.024 6.144.828 8.459 0 11.037 0 13.148c0 2.063.767 3.736 2.065 4.886 1.287 1.14 3.038 1.714 4.935 1.714 1.888 0 3.638-.545 4.928-1.658C13.23 16.964 14 15.313 14 13.248c0-2.11-.827-4.712-2.022-7.051-1.196-2.34-2.824-4.542-4.533-5.802M1.5 13.148c0-1.778.717-4.11 1.856-6.316.827-1.6 1.843-3.07 2.894-4.164v15.544c-1.281-.128-2.381-.585-3.19-1.302-.952-.843-1.56-2.095-1.56-3.762m6.25 5.065c1.288-.122 2.39-.562 3.197-1.259.947-.817 1.553-2.04 1.553-3.706q0-.317-.03-.657l-4.72 2.831zm0-4.54v-1.25l4.156-2.494q.172.547.298 1.073zm0-3 3.634-2.18c-.22-.539-.47-1.08-.742-1.614C9.815 5.261 8.8 3.775 7.75 2.673z" clip-rule="evenodd"/>
</svg>
