<svg width="40" height="40" fill="none" viewBox="0 0 40 40" xmlns="http://www.w3.org/2000/svg">
  <rect width="40" height="40" fill="url(#a)" rx="20"/>
  <path fill="#fff" fill-rule="evenodd" d="m25.357 15.252 3.385.029-.727-1.07a9.57 9.57 0 0 0-4.443-3.578 9.54 9.54 0 0 0-10.595 2.504 9.6 9.6 0 0 0-1.956 3.351l-1.663-1.134C11.04 11.052 15.22 8 20.078 8c1.666-.002 3.314.36 4.827 1.062.865.402 2.029 1.327 2.866 2.045.726.622 1.342 1.356 1.88 2.143l.466.682v-3.535H32v6.771h-6.643zm-10.713 9.495-3.386-.028.727 1.069a9.57 9.57 0 0 0 4.443 3.578 9.54 9.54 0 0 0 10.595-2.504 9.6 9.6 0 0 0 1.956-3.35l1.663 1.133C28.96 28.948 24.78 32 19.922 32a11.4 11.4 0 0 1-4.827-1.063c-.866-.401-2.029-1.326-2.866-2.044-.726-.622-1.341-1.356-1.88-2.144l-.466-.682v3.535H8v-6.77h6.643z" clip-rule="evenodd"/>
  <path fill="#fff" fill-rule="evenodd" d="M18.87 17.91c.007-.345.106-.485.172-.552.089-.089.259-.183.574-.233.656-.104 1.544.047 2.277.239l.9.235.475-1.788-.9-.235c-.773-.203-1.982-.445-3.045-.277-.544.086-1.14.293-1.603.757-.481.482-.713 1.135-.713 1.895v.035l.003.035c.067.879.593 1.463 1.14 1.847.5.352 1.12.608 1.622.816l.056.023c.566.234.987.415 1.278.626.256.187.282.3.282.4 0 .386-.115.539-.204.62-.12.107-.346.212-.73.26-.783.097-1.8-.094-2.549-.293l-.9-.239-.48 1.786.899.24c.79.21 2.1.484 3.26.34.587-.072 1.236-.263 1.748-.723.543-.487.818-1.173.818-1.992 0-.893-.503-1.497-1.044-1.89-.492-.359-1.117-.617-1.62-.825L20.544 19c-.565-.234-1.002-.419-1.319-.641-.268-.189-.339-.327-.356-.45" clip-rule="evenodd"/>
  <path fill="#fff" fill-rule="evenodd" d="M19.992 23.101c.514 0 .93.414.93.925v2.31h-1.861v-2.31c0-.511.416-.925.93-.925m.931-9.708v2.311a.927.927 0 0 1-.93.925.93.93 0 0 1-.931-.925v-2.31z" clip-rule="evenodd"/>
  <defs>
    <linearGradient id="a" x1="1.091" x2="47.733" y1="40" y2="26.272" gradientUnits="userSpaceOnUse">
      <stop stop-color="#31D8A4"/>
      <stop offset="1" stop-color="#00B0D6"/>
    </linearGradient>
  </defs>
</svg>
