<svg width="40" height="40" fill="none" viewBox="0 0 40 40" xmlns="http://www.w3.org/2000/svg">
  <rect width="40" height="40" fill="url(#a)" rx="20"/>
  <path fill="#fff" fill-rule="evenodd" d="M30 10H10v20h20zM10 8a2 2 0 0 0-2 2v20a2 2 0 0 0 2 2h1a1 1 0 0 0 1 1h2.667a1 1 0 0 0 1-1h8.667a1 1 0 0 0 1 1H28a1 1 0 0 0 1-1h1a2 2 0 0 0 2-2V10a2 2 0 0 0-2-2zm10 9a3 3 0 0 0-2.12 5.12l.012.014.013.013a3 3 0 0 0 2.073.853h.045a3 3 0 0 0 2.128-.908 3 3 0 0 0 .85-2.092 3 3 0 0 0-.899-2.14A3 3 0 0 0 20 17m2.758-1.171A5 5 0 0 0 21 15.1v-1.767a1 1 0 0 0-2 0V15.1a5 5 0 0 0-1.757.729l-1.25-1.25a1 1 0 1 0-1.414 1.414l1.25 1.25A5 5 0 0 0 15.1 19h-1.767a1 1 0 1 0 0 2H15.1c.13.638.381 1.233.729 1.757l-1.25 1.25a1 1 0 0 0 1.415 1.414l1.249-1.25a5 5 0 0 0 1.757.73v1.765a1 1 0 1 0 2 0V24.9a5 5 0 0 0 1.757-.728l1.25 1.249a1 1 0 0 0 1.413-1.414l-1.248-1.25A5 5 0 0 0 24.9 21h1.767a1 1 0 0 0 0-2H24.9a5 5 0 0 0-.728-1.757l1.249-1.25a1 1 0 0 0-1.414-1.414zM20 21.333a1.333 1.333 0 1 0 0-2.666 1.333 1.333 0 0 0 0 2.666" clip-rule="evenodd"/>
  <defs>
    <linearGradient id="a" x1="1.091" x2="47.733" y1="40" y2="26.272" gradientUnits="userSpaceOnUse">
      <stop stop-color="#BE02CE"/>
      <stop offset="1" stop-color="#402FC8"/>
    </linearGradient>
  </defs>
</svg>
