<svg width="13" height="14" fill="none" viewBox="0 0 13 14" xmlns="http://www.w3.org/2000/svg">
  <path fill="#9999AC" d="M5.566 5.873c-.401 0-.718.35-.718.777s.324.777.718.777c.401 0 .718-.35.718-.777.007-.427-.317-.777-.718-.777m2.57 0c-.402 0-.718.35-.718.777s.323.777.718.777c.4 0 .718-.35.718-.777s-.317-.777-.718-.777"/>
  <path fill="#9999AC" d="M11.557 0H2.123C1.328 0 .68.644.68 1.442v9.464c0 .798.648 1.442 1.443 1.442h7.984l-.373-1.295.9.833.853.784L13 14V1.442C13 .644 12.352 0 11.557 0M8.839 9.142s-.253-.301-.464-.567c.922-.26 1.274-.833 1.274-.833a4 4 0 0 1-.81.413q-.527.219-1.02.3a5 5 0 0 1-1.824-.006 6 6 0 0 1-1.035-.301 4 4 0 0 1-.514-.238c-.02-.014-.042-.021-.063-.035q-.02-.01-.028-.021c-.127-.07-.197-.12-.197-.12s.338.56 1.232.827c-.211.266-.472.581-.472.581-1.556-.049-2.147-1.064-2.147-1.064 0-2.254 1.014-4.081 1.014-4.081 1.013-.756 1.978-.735 1.978-.735l.07.084c-1.267.364-1.851.917-1.851.917s.155-.084.415-.203c.753-.33 1.352-.42 1.598-.441.042-.007.078-.014.12-.014a5.76 5.76 0 0 1 3.541.658s-.556-.525-1.753-.89l.099-.111s.964-.021 1.978.735c0 0 1.014 1.827 1.014 4.08 0 0-.599 1.016-2.155 1.065"/>
</svg>
