<svg width="16" height="16" fill="none" viewBox="0 0 16 16" xmlns="http://www.w3.org/2000/svg">
  <path fill="#9999AC" fill-rule="evenodd" d="M1.5 2.5h1.268c1.53 0 3.05.226 4.513.672L8 3.39l.72-.218a15.5 15.5 0 0 1 4.512-.672H14.5v10.587h-1.268a14.5 14.5 0 0 0-4.222.628L8 14.023l-1.01-.308a14.5 14.5 0 0 0-4.222-.628H1.5zm1 1v8.587h.268c1.53 0 3.05.226 4.513.672l.219.066V4.284l-.51-.156A14.5 14.5 0 0 0 2.768 3.5zm6 .784v8.541l.22-.066a15.5 15.5 0 0 1 4.512-.672h.268V3.5h-.268a14.5 14.5 0 0 0-4.222.628z" clip-rule="evenodd"/>
</svg>
