<svg width="17" height="18" fill="none" viewBox="0 -2 15 20" xmlns="http://www.w3.org/2000/svg">
  <path stroke="#fff" stroke-miterlimit="10" d="M15.95 4.823a.427.427 0 0 1 0 .623l-1.247 1.211-2.805 2.814a.454.454 0 0 1-.632 0l-.935-.935a.454.454 0 0 1 0-.632l1.665-1.665H4.508a.445.445 0 0 1-.446-.472v-1.3a.436.436 0 0 1 .446-.436h7.524l-1.665-1.674a.445.445 0 0 1 0-.624L11.3.798a.445.445 0 0 1 .633 0zM.627 13.276a.445.445 0 0 1 0-.624l1.211-1.3 2.725-2.831a.436.436 0 0 1 .623 0l.953.89a.436.436 0 0 1 0 .624l-1.62 1.745 7.532-.143a.445.445 0 0 1 .454.428v1.326a.436.436 0 0 1-.427.454l-7.515.179 1.7 1.602a.436.436 0 0 1 0 .624l-.89.952a.436.436 0 0 1-.623 0z"/>
</svg>
