<svg width="16" height="16" fill="none" viewBox="0 0 16 16" xmlns="http://www.w3.org/2000/svg">
  <g fill="#9999AC" clip-path="url(#a)">
    <path fill-rule="evenodd" d="M2.507 3.687h-1.1v-1h13.186v1H13.5v5.466A5.494 5.494 0 0 1 8 14.646a5.494 5.494 0 0 1-5.493-5.493zm1 0v5.466A4.494 4.494 0 0 0 8 13.646v.5-.5a4.49 4.49 0 0 0 4.5-4.493V3.687z" clip-rule="evenodd"/>
    <path d="M6.39 6.864q.086 0 .146.068l.45.552.594-.724-.304-.372Q6.93 6 6.456 6H5.203q-.015 0-.025.01a.03.03 0 0 0-.01.022v.8a.03.03 0 0 0 .01.022q.01.01.025.01zM9.551 6q-.478 0-.823.384L7.394 8.016l-.858 1.048a.2.2 0 0 1-.147.068H5.202q-.015 0-.024.01a.03.03 0 0 0-.007.022v.8q0 .016.007.026.009.01.024.01h1.25q.48 0 .824-.388l.728-.888.728.888q.34.388.82.388h1.25q.015 0 .023-.01a.04.04 0 0 0 .008-.022v-.8q0-.016-.008-.026t-.023-.01H9.615a.2.2 0 0 1-.143-.064l-.878-1.072.874-1.064a.2.2 0 0 1 .147-.068h1.187q.015 0 .023-.01a.04.04 0 0 0 .008-.022v-.8q0-.016-.008-.024T10.802 6z"/>
  </g>
  <defs>
    <clipPath id="a">
      <path fill="#fff" d="M0 0h16v16H0z"/>
    </clipPath>
  </defs>
</svg>
