<svg width="18" height="18" fill="none" viewBox="0 0 18 18" xmlns="http://www.w3.org/2000/svg">
  <path fill="#fff" d="M5.11 14.278a1.389 1.389 0 1 1-2.778 0 1.389 1.389 0 0 1 2.778 0M10.387 9A1.389 1.389 0 1 1 7.61 9a1.389 1.389 0 0 1 2.778 0m5.278 0a1.389 1.389 0 1 1-2.777 0 1.389 1.389 0 0 1 2.777 0m-5.279-5.278a1.389 1.389 0 1 1-2.778 0 1.389 1.389 0 0 1 2.778 0m5.279 0a1.389 1.389 0 1 1-2.777 0 1.389 1.389 0 0 1 2.777 0M5.11 9a1.389 1.389 0 1 1-2.778 0A1.389 1.389 0 0 1 5.11 9m5.277 5.278a1.389 1.389 0 1 1-2.778 0 1.389 1.389 0 0 1 2.778 0m5.279 0a1.389 1.389 0 1 1-2.777 0 1.389 1.389 0 0 1 2.777 0M5.11 3.722a1.389 1.389 0 1 1-2.778 0 1.389 1.389 0 0 1 2.778 0"/>
</svg>
