<svg width="20" height="20" fill="none" viewBox="-1 0 18 15" xmlns="http://www.w3.org/2000/svg">
  <path fill="#fff" fill-rule="evenodd" d="M4.092.708c-.594 0-1.075.481-1.075 1.075v2.259h-1.45c-.593 0-1.074.48-1.074 1.074v2.435c0 .593.48 1.074 1.074 1.074h1.72v2.084a1.074 1.074 0 0 0-1.033 1.074v2.435c0 .593.48 1.074 1.074 1.074H13.4c.593 0 1.074-.481 1.074-1.075v-2.26a1.074 1.074 0 0 0 1.033-1.073V8.45c0-.593-.48-1.074-1.074-1.074h-1.72V5.292h1.45c.594 0 1.075-.481 1.075-1.075V1.783c0-.594-.481-1.075-1.074-1.075zm.175 3.334V1.958h9.72v2.084zm-2.524 1.25v2.083h9.72V5.292zm2.794 5.416V8.625h9.72v2.083zm-1.033 3.334v-2.084h9.72v2.084z" clip-rule="evenodd"/>
</svg>
