<svg width="16" height="16" fill="none" viewBox="0 0 14 13" xmlns="http://www.w3.org/2000/svg">
  <path fill="#9999AC" fill-rule="evenodd" d="M2.333 8.333H1V11h1.333zM1 7.333a1 1 0 0 0-1 1V11a1 1 0 0 0 1 1h1.333a1 1 0 0 0 1-1V8.333a1 1 0 0 0-1-1zM6.667 7H5.333v4h1.334zM5.333 6a1 1 0 0 0-1 1v4a1 1 0 0 0 1 1h1.334a1 1 0 0 0 1-1V7a1 1 0 0 0-1-1zM11 5.667H9.667V11H11zm-1.333-1a1 1 0 0 0-1 1V11a1 1 0 0 0 1 1H11a1 1 0 0 0 1-1V5.667a1 1 0 0 0-1-1zM11.724.188a.5.5 0 0 1-.078.702L6.937 4.657a1.5 1.5 0 0 1-1.874 0l-.75-.6a.5.5 0 0 0-.625 0L.979 6.224a.5.5 0 0 1-.625-.781l2.709-2.167a1.5 1.5 0 0 1 1.874 0l.75.6a.5.5 0 0 0 .625 0L11.021.11a.5.5 0 0 1 .703.078" clip-rule="evenodd"/>
</svg>
