<svg width="20" height="20" fill="none" viewBox="0 0 20 20" xmlns="http://www.w3.org/2000/svg">
  <path fill="#06061B" fill-rule="evenodd" d="M16.25 3.75H3.75v12.5h12.5zM3.75 2.5c-.69 0-1.25.56-1.25 1.25v12.5c0 .69.56 1.25 1.25 1.25h.625c0 .345.28.625.625.625h1.667c.345 0 .625-.28.625-.625h5.416c0 .345.28.625.625.625H15c.345 0 .625-.28.625-.625h.625c.69 0 1.25-.56 1.25-1.25V3.75c0-.69-.56-1.25-1.25-1.25zm4.914 6.184A1.87 1.87 0 0 0 8.125 10a1.87 1.87 0 0 0 .55 1.326l.007.007.007.007c.338.331.8.535 1.311.535a1.87 1.87 0 0 0 1.325-.55l.016-.015c.33-.338.534-.8.534-1.31 0-.512-.205-.976-.538-1.314l-.011-.012-.012-.011A1.87 1.87 0 0 0 10 8.125c-.513 0-.978.206-1.316.54l-.01.01zm3.06-1.291a3.1 3.1 0 0 0-1.099-.455V5.833a.625.625 0 1 0-1.25 0v1.105c-.399.08-.77.238-1.098.455l-.781-.781a.625.625 0 0 0-.884.884l.78.78a3.1 3.1 0 0 0-.454 1.099H5.833a.625.625 0 0 0 0 1.25h1.105c.08.399.238.77.455 1.098l-.78.781a.625.625 0 0 0 .883.884l.78-.78c.329.216.7.373 1.099.454v1.105a.625.625 0 0 0 1.25 0v-1.104a3.1 3.1 0 0 0 1.098-.456l.78.78a.625.625 0 1 0 .885-.883l-.78-.78c.216-.329.373-.7.454-1.099h1.105a.625.625 0 0 0 0-1.25h-1.104a3.1 3.1 0 0 0-.456-1.098l.781-.781a.625.625 0 1 0-.884-.884zM10 10.833a.833.833 0 1 0 0-1.666.833.833 0 0 0 0 1.666" clip-rule="evenodd"/>
</svg>
