<svg width="126" height="22" fill="none" viewBox="0 0 126 22" xmlns="http://www.w3.org/2000/svg">
  <path fill="#00D1FF" d="M7.007 4.805a.95.95 0 0 0-.75-.35H.182a.18.18 0 0 1-.131-.052A.16.16 0 0 1 0 4.29V.165Q0 .103.05.052A.18.18 0 0 1 .183 0h6.42q2.43 0 4.192 2l1.56 1.918-3.038 3.733zm11.22-2.825Q19.987 0 22.438 0h6.4q.08 0 .12.041.04.042.041.124V4.29a.18.18 0 0 1-.04.113q-.041.051-.122.051h-6.075a.95.95 0 0 0-.75.351l-4.475 5.486 4.496 5.527q.303.33.729.33h6.075q.08 0 .122.052.04.052.04.134v4.124a.18.18 0 0 1-.04.113q-.041.052-.122.052h-6.4q-2.45 0-4.191-2l-3.727-4.579-3.726 4.579q-1.763 2-4.212 2h-6.4q-.081 0-.121-.052a.2.2 0 0 1-.04-.134v-4.125q-.001-.06.04-.113.04-.051.121-.052h6.075q.425 0 .75-.35l4.394-5.403z"/>
  <path fill="#fff" d="M48.84 6H44c-.7 0-1.28.58-1.28 1.28V8.4c0 .7.58 1.28 1.28 1.28h5.7c1.68 0 3.12 1.38 3.12 3.1v1.98c0 1.66-1.38 3.1-3.12 3.1h-6.5c-1.66 0-3.14-1.4-3.14-3.1v-.96h2.52v.66c0 .7.56 1.28 1.26 1.28h5.22c.7 0 1.26-.58 1.26-1.28v-1.38c0-.7-.56-1.28-1.26-1.28h-5.72c-1.66 0-3.12-1.38-3.12-3.1V6.98c0-1.68 1.4-3.12 3.12-3.12h6.14c1.66 0 3.14 1.42 3.14 3.12v.96H50.1v-.68c0-.7-.56-1.26-1.26-1.26m12.903 9.86v2h-2.78c-1.54 0-2.8-1.2-2.8-2.78V9.04h-1.88V7.02h1.88V4.64h2.32v2.38h3.28v2.02h-3.28v5.7c0 .66.44 1.12 1.1 1.12zm5.137 0h3.62c.38 0 .7-.3.7-.7V9.04h-4.32c-.64 0-1.16.5-1.16 1.14v4.52c0 .66.52 1.16 1.16 1.16m2.58 2h-3.2c-1.58 0-2.84-1.32-2.84-2.84V9.86c0-1.58 1.32-2.84 2.84-2.84h7.24v10.84h-2.3v-1.48zM83.48 7.02h2.98l-5.76 5.2 6.26 5.64h-3.02l-5.54-5.14v5.14h-2.3V3.14h2.3v8.74zm5.043 0h2.32v10.84h-2.32zm0-3.72h2.32v2.32h-2.32zm7.241 6.42v8.14h-2.3V7.02h2.3v1.42l1.68-1.42h3.5a2.85 2.85 0 0 1 2.84 2.84v8h-2.32v-7.68c0-.64-.5-1.14-1.14-1.14h-3.86c-.38 0-.7.28-.7.68m13.85 5.8h3.78c.38 0 .7-.28.7-.68v-5.8h-4.48c-.64 0-1.16.5-1.16 1.14v4.2c0 .64.52 1.14 1.16 1.14m3.96 6.26h-4.04c-1.54 0-2.84-1.24-2.84-2.82v-.6h2.26v.34c0 .66.52 1.16 1.16 1.16h2.82c.66 0 1.16-.5 1.16-1.16v-2.64l-1.74 1.48h-3.36c-1.58 0-2.84-1.32-2.84-2.84V9.86c0-1.58 1.32-2.84 2.84-2.84h7.42v11.94c0 1.52-1.26 2.82-2.84 2.82"/>
</svg>
